<!DOCTYPE svg PUBLIC "-//W3C//DTD SVG 20010904//EN" "http://www.w3.org/TR/2001/REC-SVG-20010904/DTD/svg10.dtd">
<svg version="1.0" xmlns="http://www.w3.org/2000/svg" width="798px" height="249px" viewBox="0 0 7980 2490" preserveAspectRatio="xMidYMid meet">
<g id="layer101" fill="#010101" stroke="none">
 <path d="M1135 2479 c-346 -36 -688 -232 -892 -511 -177 -240 -264 -554 -233 -837 17 -159 52 -281 119 -416 180 -363 501 -606 916 -692 74 -16 354 -17 3507 -20 l3428 -3 0 1245 0 1245 -3382 -1 c-1861 -1 -3419 -5 -3463 -10z m6745 -1234 l0 -1145 -3377 3 c-3082 3 -3384 4 -3448 19 -262 61 -452 163 -620 333 -101 102 -168 196 -225 318 -284 606 26 1320 672 1546 84 29 208 56 293 64 22 2 1540 4 3373 5 l3332 2 0 -1145z"/>
 <path d="M2220 1250 l0 -1010 287 2 287 3 299 405 c284 386 480 657 502 694 7 12 9 -166 7 -543 l-2 -561 283 0 c211 0 287 3 299 12 17 14 691 927 754 1022 20 31 40 56 44 56 4 0 24 -25 44 -56 63 -95 737 -1008 754 -1022 12 -9 88 -12 303 -12 l288 0 348 473 c191 259 374 510 405 556 l58 85 0 -557 0 -557 280 0 280 0 0 1010 0 1010 -268 0 -267 0 -360 -492 c-198 -270 -389 -535 -425 -589 l-65 -97 3 589 3 589 -280 0 -281 0 -2 -576 -3 -576 -67 98 c-145 214 -735 1009 -748 1009 -13 0 -603 -795 -748 -1009 l-67 -98 -3 576 -2 576 -268 0 -267 -1 -370 -505 c-203 -279 -394 -543 -423 -587 -29 -45 -54 -82 -55 -83 -1 -1 -1 263 1 587 l3 589 -281 0 -280 0 0 -1010z"/>
 <path d="M985 2204 c-141 -32 -163 -39 -222 -70 -132 -72 -169 -95 -218 -141 -13 -13 -29 -23 -35 -23 -5 0 -10 -3 -10 -7 0 -5 -23 -32 -50 -62 -28 -30 -50 -58 -50 -62 0 -4 -3 -9 -7 -11 -13 -5 -59 -78 -95 -148 -37 -72 -70 -171 -90 -270 -18 -89 -15 -276 6 -380 10 -47 20 -97 23 -112 3 -16 9 -28 14 -28 5 0 9 -8 9 -19 0 -32 95 -203 140 -252 34 -36 151 -155 162 -164 37 -31 140 -96 177 -112 22 -10 41 -21 41 -25 0 -5 8 -8 18 -8 10 0 22 -4 27 -9 19 -19 261 -61 351 -61 93 0 318 40 337 59 6 6 21 11 34 11 13 0 23 3 23 8 0 4 19 15 41 25 37 16 140 81 177 112 14 12 106 105 151 153 17 19 43 56 57 83 15 27 31 49 36 49 4 0 8 7 8 15 0 8 11 34 25 59 14 25 25 52 25 60 0 9 5 16 12 16 6 0 9 3 5 6 -3 3 1 23 8 44 7 21 21 95 31 165 17 123 17 133 0 253 -10 69 -24 142 -31 163 -8 20 -11 40 -8 43 4 3 1 6 -5 6 -7 0 -12 6 -12 14 0 21 -60 146 -80 166 -3 3 -13 20 -24 39 -21 37 -19 36 -128 147 -43 43 -90 88 -105 100 -37 27 -190 114 -201 114 -5 0 -22 6 -38 14 -16 8 -75 24 -131 35 -118 24 -303 27 -398 5z"/>
 </g>
<g id="layer102" fill="#0494fd" stroke="none">
 <path d="M985 2204 c-141 -32 -163 -39 -222 -70 -80 -44 -160 -91 -180 -106 -37 -31 -183 -179 -183 -187 0 -5 -3 -11 -7 -13 -13 -5 -59 -78 -95 -148 -37 -72 -70 -171 -90 -270 -18 -89 -15 -276 6 -380 10 -47 20 -97 23 -112 3 -16 9 -28 14 -28 5 0 9 -8 9 -19 0 -32 95 -203 140 -252 34 -36 151 -155 162 -164 39 -33 143 -96 210 -129 96 -47 276 -86 400 -86 93 0 280 32 338 57 103 45 151 70 205 107 75 50 74 49 139 116 97 99 115 121 142 171 15 27 31 49 36 49 4 0 8 7 8 15 0 8 11 34 25 59 14 25 25 52 25 60 0 9 5 16 12 16 6 0 9 3 5 6 -3 3 1 23 8 44 7 21 21 95 31 165 17 123 17 133 0 253 -10 69 -24 142 -31 163 -8 20 -11 40 -8 43 4 3 1 6 -5 6 -7 0 -12 6 -12 14 0 21 -60 146 -80 166 -3 3 -13 20 -24 39 -21 37 -19 36 -128 147 -43 43 -90 88 -105 100 -37 27 -190 114 -201 114 -5 0 -22 6 -38 14 -16 8 -75 24 -131 35 -118 24 -303 27 -398 5z m10 -98 l30 -13 -27 -8 c-35 -9 -46 -24 -74 -91 -24 -59 -23 -75 12 -140 22 -41 30 -93 22 -139 -2 -14 7 -25 34 -40 41 -22 45 -35 26 -97 -9 -29 -9 -41 0 -50 7 -7 12 -26 12 -44 0 -46 -35 -65 -139 -76 -76 -8 -90 -13 -115 -39 -19 -20 -38 -29 -60 -29 -17 0 -42 -7 -54 -15 -17 -13 -29 -14 -58 -6 -21 6 -40 8 -44 6 -4 -3 -19 7 -33 21 -31 30 -61 28 -65 -5 -2 -13 -12 -26 -24 -29 -15 -3 -18 -10 -14 -28 8 -30 -1 -30 -30 -3 -32 30 -54 19 -54 -26 0 -32 4 -38 37 -52 26 -10 42 -12 53 -5 13 8 21 -2 45 -52 35 -75 92 -156 109 -156 20 0 54 -42 39 -47 -21 -8 -15 -25 19 -53 l31 -26 -23 -32 c-13 -18 -30 -30 -37 -28 -8 3 -13 -2 -13 -14 0 -11 4 -20 9 -20 5 0 11 -13 15 -30 4 -21 11 -30 25 -30 28 0 37 -20 12 -27 -12 -3 -21 -10 -21 -15 0 -5 -13 -14 -30 -19 -39 -14 -38 -28 4 -61 36 -29 56 -35 56 -18 0 6 16 8 43 3 38 -6 41 -5 28 10 -8 11 -9 17 -2 17 7 0 9 15 5 44 -7 47 7 86 31 86 8 0 28 -21 46 -47 44 -67 86 -109 142 -145 26 -16 47 -37 47 -47 0 -9 7 -25 15 -35 8 -11 15 -28 15 -37 0 -10 12 -27 26 -38 l27 -21 -57 0 c-64 0 -102 13 -196 69 -36 22 -82 42 -104 46 -21 3 -46 10 -55 15 -9 5 -37 18 -63 30 -27 12 -48 27 -48 34 0 6 -10 16 -22 21 -13 6 -23 18 -23 28 0 10 -7 22 -15 28 -13 8 -12 11 4 24 15 11 16 15 5 16 -23 2 -33 5 -60 16 -26 11 -53 58 -47 83 2 9 -13 18 -45 25 -44 9 -49 14 -70 60 -34 73 -54 156 -67 279 -13 119 -9 139 40 183 19 17 37 22 81 23 41 0 63 6 82 20 14 11 34 20 45 20 27 0 31 7 39 80 7 73 30 106 110 157 29 18 53 39 53 45 0 6 8 30 19 52 10 23 33 76 51 118 18 43 43 92 56 110 13 17 24 42 24 54 0 12 7 24 15 28 8 3 15 12 15 20 0 17 69 75 90 75 8 0 29 -6 45 -13z m652 -271 c33 -23 110 -128 133 -183 12 -28 33 -60 46 -73 23 -22 25 -28 19 -85 l-7 -61 42 -33 c27 -21 50 -52 66 -88 30 -68 30 -74 -2 -62 -36 14 -54 12 -54 -5 0 -9 9 -15 23 -15 24 0 90 -42 115 -73 8 -9 11 -25 7 -36 -8 -27 4 -31 47 -16 l37 12 -5 -46 c-9 -69 -43 -177 -82 -259 -35 -75 -128 -208 -176 -252 -23 -21 -30 -23 -47 -12 -16 11 -24 11 -36 1 -11 -10 -16 -10 -22 -1 -6 10 -14 9 -37 -3 -16 -8 -39 -15 -51 -15 -12 0 -25 -4 -28 -10 -3 -5 -25 -10 -47 -10 -35 0 -47 6 -79 40 -21 22 -42 40 -47 40 -5 0 -16 8 -26 19 -20 22 -11 51 15 51 16 0 18 5 13 28 -4 15 -7 28 -8 28 -11 12 -90 54 -100 54 -23 0 -29 20 -12 39 24 26 20 32 -22 30 -50 -3 -62 5 -62 47 0 26 5 37 21 43 21 7 21 8 -10 40 -17 17 -31 38 -31 45 0 8 -11 17 -25 20 -39 10 -72 71 -78 144 -5 63 -5 63 36 106 23 23 52 48 64 54 23 13 99 7 146 -10 21 -8 38 -7 68 2 40 14 43 18 39 59 -1 13 11 48 26 78 24 49 26 59 16 87 -16 44 -14 122 3 171 8 22 15 52 15 67 0 52 52 75 97 43z m268 -182 c31 -67 38 -118 15 -118 -20 0 -83 130 -75 155 11 35 33 21 60 -37z m-1485 -966 c0 -5 -7 -6 -16 -3 -9 3 -20 6 -25 6 -5 0 -9 7 -9 15 0 12 4 13 25 3 14 -6 25 -15 25 -21z"/>
 <path d="M417 888 c-4 -13 32 -59 99 -128 19 -20 34 -41 34 -47 0 -6 7 -13 15 -17 22 -8 20 40 -2 53 -15 9 -16 12 -4 20 12 7 9 16 -16 48 -17 21 -35 48 -42 61 -9 16 -21 22 -46 22 -18 0 -35 -6 -38 -12z"/>
 <path d="M480 714 c0 -17 22 -14 28 4 2 7 -3 12 -12 12 -9 0 -16 -7 -16 -16z"/>
 <path d="M1945 1090 c-12 -19 5 -28 29 -17 13 7 22 15 20 19 -7 11 -42 10 -49 -2z"/>
 <path d="M1705 1010 c-27 -4 -65 -5 -83 -2 -18 3 -43 0 -55 -6 -12 -5 -30 -13 -40 -16 -24 -8 -18 -40 8 -44 11 -2 28 -11 38 -20 15 -14 19 -13 37 3 19 18 57 14 45 -5 -3 -5 0 -10 7 -10 7 0 18 10 23 23 8 16 19 22 46 23 51 1 61 9 47 39 -6 14 -14 24 -17 24 -3 -1 -28 -5 -56 -9z"/>
 <path d="M1360 934 c0 -16 65 -72 92 -79 18 -5 34 3 63 28 22 19 36 39 32 43 -13 13 -187 21 -187 8z"/>
 <path d="M1493 705 c-3 -9 -3 -19 1 -22 7 -7 36 16 36 28 0 15 -30 10 -37 -6z"/>
 <path d="M1544 703 c4 -9 10 -36 13 -60 6 -43 23 -60 23 -23 0 11 9 25 19 32 18 11 18 13 -9 40 -32 31 -56 37 -46 11z"/>
 <path d="M4902 2128 c-244 -331 -647 -885 -690 -950 l-52 -77 0 -431 c0 -380 2 -430 15 -423 15 9 668 889 753 1016 25 37 48 67 52 67 4 0 27 -30 52 -67 85 -127 738 -1007 753 -1016 13 -7 15 43 15 423 l0 431 -70 102 c-120 176 -734 1010 -747 1014 -7 3 -43 -38 -81 -89z"/>
 </g>

</svg>